# xmcd CD database file
# Copyright (C) 1993-1998 Ti Kan
#
# Track frame offsets:
#	150
#	14064
#	33608
#	44186
#	63828
#	80814
#	96827
#	116262
#	131039
#
# Disc length: 1928 seconds
#
# Revision: 1
# Processed by: cddbd v1.4b41PL1 Copyright (c) Steve Scherf et al.
# Submitted via: CDValet v3.31 - Copyright (c) 1997 Greg Leichner
#
DISCID=80078609
DTITLE=Arnt and Bjørn - Arnt and Bjørn
DYEAR=1900
DGENRE=
TTITLE0=The price I pay
TTITLE1=The Outlaw
TTITLE2=Rude, Screwed and Tattooed
TTITLE3=Homebound
TTITLE4=Two steps behind
TTITLE5=Booze and Rock n' Roll
TTITLE6=The sadest song
TTITLE7=I need U
TTITLE8=Devils Echo
EXTD=
EXTT0=
EXTT1=
EXTT2=
EXTT3=
EXTT4=
EXTT5=
EXTT6=
EXTT7=
EXTT8=
PLAYORDER=
